<?xml version="1.0" standalone="no"?><!DOCTYPE svg PUBLIC "-//W3C//DTD SVG 1.1//EN" "http://www.w3.org/Graphics/SVG/1.1/DTD/svg11.dtd"><svg t="1632530662770" class="icon" viewBox="0 0 1024 1024" version="1.1" xmlns="http://www.w3.org/2000/svg" p-id="3963" xmlns:xlink="http://www.w3.org/1999/xlink" width="64" height="64"><defs><style type="text/css"></style></defs><path d="M820.6 344.1l3-1.6c16-10.2 25.6-27.6 25.8-46.7 0.1-19.7-9.7-38.1-26.3-49l-277-135.3c-18-11-40.6-11.3-58.6-0.8L218.3 237l-3 1.6c-16 10.2-25.6 27.6-25.8 46.8-0.1 19.7 9.7 38.1 26.4 49l276.9 135.2c9.3 5.6 19.7 8.5 30.1 8.5 9.9 0 19.7-2.6 28.5-7.7l269.2-126.3z m-296.1 80.4c-1.1 0.7-2.7 0.5-4.1-0.4L244.3 289.3c-1.3-1.2-1.5-2.7-1.5-3.5 0-0.8 0.2-1.4 0.5-1.7l268.1-125.8 3-1.6c1.1-0.7 2.7-0.5 4.1 0.4l276.1 134.8c1.3 1.2 1.5 2.7 1.5 3.5 0 0.8-0.2 1.4-0.5 1.7L527.5 422.8l-3 1.7zM847.8 375.6c-18.4-10.6-40.4-10.4-57.4-0.3L556 496.1c-18.5 10.9-30.1 31.4-30.2 53.5L523.9 856c-0.1 22.7 11.7 43.7 30.9 54.7 9.1 5.2 19.1 7.9 29.1 7.9 9.6 0 19.3-2.4 28.1-7.3l231.8-101.8 2.8-1.5c18.5-10.9 30.1-31.4 30.2-53.5l1.9-324.1c0.1-22.8-11.7-43.8-30.9-54.8z m-24.2 378.5c0 3-1.3 5.9-3.3 7.5L589.3 863l-2.8 1.5c-1.2 0.7-2.9 1.4-5.2 0.1-1-0.6-4.2-2.8-4.2-8.2L579 550c0-3.4 1.6-6.6 2.7-7.3l234.4-120.8c0.7-0.4 1.6-0.8 2.6-0.8 0.8 0 1.6 0.2 2.6 0.8 1 0.6 4.2 2.8 4.2 8.2l-1.9 324zM472.8 495.4L241.1 376c-18.3-10.9-40.3-11-58.8-0.4-19.2 11-31 32-30.9 54.7l1.9 324.1c0.2 22.1 11.7 42.6 30.2 53.5l234.6 103.2c8.9 4.9 18.5 7.3 28.1 7.3 10 0 19.9-2.6 29-7.8 19.2-11 31-32 30.9-54.7l-1.9-306.4c0-21.9-11.6-42.5-31.4-54.1z m-24 369.1c-2.3 1.3-4 0.7-5.2-0.1L209.7 761.6c-2-1.6-3.3-4.4-3.3-7.5L204.6 430c0-5.4 3.2-7.7 4.2-8.2 2.3-1.3 3.9-0.7 6.5 0.8L447 541.9c2.5 1.5 4.1 4.6 4.1 8l1.9 306.3c0 5.5-3.2 7.8-4.2 8.3z" fill="#ffffff" p-id="3964"></path></svg>