<?xml version="1.0" standalone="no"?><!DOCTYPE svg PUBLIC "-//W3C//DTD SVG 1.1//EN" "http://www.w3.org/Graphics/SVG/1.1/DTD/svg11.dtd"><svg t="1633097939656" class="icon" viewBox="0 0 1024 1024" version="1.1" xmlns="http://www.w3.org/2000/svg" p-id="1935" xmlns:xlink="http://www.w3.org/1999/xlink" width="32" height="32"><defs><style type="text/css"></style></defs><path d="M716.41163852 249.46763852H554.73189925c-3.43457185 0-6.2137837 2.77921185-6.2137837 6.2137837v161.67973926c0 3.43457185 2.77921185 6.2137837 6.2137837 6.2137837h161.67973927c3.43457185 0 6.2137837-2.77921185 6.2137837-6.2137837V255.68142222c0-3.43457185-2.77921185-6.2137837-6.2137837-6.2137837z m-64.2374163 97.44232296c0 3.43457185-2.77921185 6.2137837-6.2137837 6.2137837h-20.77733927c-3.43457185 0-6.2137837-2.77921185-6.2137837-6.2137837v-20.77733926c0-3.43457185 2.77921185-6.2137837 6.2137837-6.2137837h20.77733927c3.43457185 0 6.2137837 2.77921185 6.2137837 6.2137837v20.77733926z" fill="#1890FF" p-id="1936"></path><path d="M1009.7337837 209.36931555l-0.13349925-3.9442963c-0.02427259-0.55826963-0.10922667-1.11653925-0.27913482-1.66267258l-1.18935704-3.77438815c-2.42725925-7.82791111-65.1961837-191.97193482-437.70766222-170.84264297-341.49110518 19.44234667-365.13261037 187.27518815-365.95787852 194.39919408l-0.3155437 2.54862222c-0.04854518 0.38836148-0.06068148 0.77672297-0.0364089 1.17722074l0.16990816 2.56075852c1.27431111 20.61956741 5.04869925 78.87378963 10.84984889 141.67912297 0.24272592 2.56075852-1.12867555 4.9152-3.3010726 6.05601184-1.9782163-0.18204445-4.06565925-0.25486222-6.29873778-0.16990814-8.25268148 0.27913482-14.51501037 2.26948741-19.27243851 5.49774222-82.28408889 17.60976592-170.4057363 52.17393778-173.59758223 119.53038222-2.31803259 48.53304889 13.39847111 158.18448592 29.69751704 266.34315853 3.99284148 26.50567111 7.11186963 47.07669333 8.14345481 56.45805036 2.45153185 22.16087703 6.08028445 100.98612148 6.08028445 112.35783111 0 15.76504889 0 48.58159408 131.59386074 53.04775111 111.93306075 3.50738963 137.64987259-34.00590222 139.82226963-66.36126815 0.13349925-1.86898963 5.18219852-4.73315555 5.75260445-5.06083555 18.0102637-10.02458075 50.82680889-10.94693925 71.88328295-8.33763555 3.43457185 0.42477037 5.84969482 3.5923437 5.37637927 7.01477925-5.14578963 37.10065778 9.04154075 60.45089185 42.27072 69.4560237 1.16508445 0.3155437 73.3881837 18.61707852 139.50672593 18.61707852 43.30230518-0.0121363 83.98317037-7.84004741 100.42785185-33.69035852 4.70888297-7.37886815 10.70421333-16.79663408 6.65069037-96.51996444-0.18204445-3.58020741 2.66998518-6.57787259 6.25019258-6.5414637 33.53258667 0.30340741 154.82273185 1.27431111 182.16580742-0.12136297 49.23695408-2.42725925 115.56181333-59.71057778 127.26120296-129.91905184 9.68476445-58.3149037-4.18702222-481.72600889-5.81328593-529.79787853zM692.79440592 687.69716148a6.21014282 6.21014282 0 0 1-4.73315555-5.78901333l-0.16990815-4.19915852a6.21621097 6.21621097 0 0 1 6.2137837-6.46864593h143.17188741c2.80348445 0 5.2550163 1.86898963 5.99533037 4.57538371 0.92235852 3.34961778 1.60199111 6.42010075 1.9782163 8.98085926 0.36408889 2.43939555-0.78885925 4.84238222-2.87630222 6.14096592-0.76458667 0.47331555-1.54130963 0.94663111-2.23307853 1.37140149-4.22343111 2.57289482-9.19931259 5.59483259-14.32082962 9.68476444-1.10440297 0.88594963-2.46366815 1.40781037-3.88361481 1.39567407-5.00015408-0.04854518-13.43488-1.3228563-19.64866371-2.07530667-10.95907555-1.33499259-23.37450667-2.81562075-37.37979259-3.30107259-33.87240297-1.16508445-58.30276741-6.95409778-58.46053927-6.97837036l-13.65333333-3.33748149z m253.24809483 39.90414222c-6.95409778 41.6274963-48.43595852 70.4633363-61.25188742 71.1308326-18.47144297 0.91022222-92.15089778 0.6432237-145.33214815 0.27913481a6.21621097 6.21621097 0 0 1-6.16523851-6.2137837v-19.55157333c0-3.64088889 3.10689185-6.50505482 6.73564444-6.18951111 6.97837037 0.60681482 14.49073778 1.09226667 22.42787556 1.35926518 11.42025482 0.38836148 21.9424237 1.69908148 31.37232592 2.83989333 26.5542163 3.19184592 54.0550637 6.52932741 75.03872-13.43488 1.55344592-1.49276445 4.63606518-3.36175408 7.91286519-5.35210666 11.4688-6.97837037 32.81654518-19.98848 38.18078814-50.74185482 5.38851555-31.00823703-11.99066075-69.94147555-17.45199407-81.15541333l-7.94927407-16.29904592a6.2137837 6.2137837 0 0 0-5.5826963-3.49525334H620.71694222c-3.53166222 0-6.35941925 2.9369837-6.2137837 6.46864592l6.50505481 158.86411852c5.40065185 59.38289778 9.96389925 129.23941925 9.91535408 161.42487704 0 3.05834667-2.22094222 5.67978667-5.24288 6.15310222-29.75819852 4.5753837-95.41556148-1.77189925-137.98968889-10.64353186-3.22825482-0.6674963-5.40065185-3.73797925-4.9030637-6.99050666 1.71121778-11.10471111 2.48794075-25.17067852-3.65302519-39.45509926-18.55639703-43.39939555-104.37214815-39.26091852-133.01380741-34.43067258-65.42677333 11.11684741-82.79381333 46.38492445-87.1750163 68.07248592-0.42477037 2.07530667-1.82044445 3.84720592-3.79866074 4.5996563-23.78714075 9.06581333-88.1580563 5.87396741-123.99653926-0.48545186a6.19922015 6.19922015 0 0 1-5.12151703-5.86183111c-1.27431111-30.06160592-3.6166163-73.76440889-5.50987852-90.98581333-1.08013037-9.8425363-4.30838518-31.43300741-8.5075437-59.27367112-10.89839408-72.28378075-31.19028148-206.83889778-29.00574815-252.48350814 0.44904297-9.36922075 27.46443852-30.02519703 89.86927407-47.05242074l0.94663111 19.52730074 12.97370075-2.50007704c13.72615111 130.58654815 83.77685333 219.80046222 121.94550518 234.10915555 27.08821333 10.19448889 124.37276445 3.33748148 201.14697482-4.21129481l23.8963674-2.34230519a6.20286103 6.20286103 0 0 0 5.5826963-5.61910517l8.1798637-90.08772742c0.32768-3.64088889-2.53648592-6.77205333-6.1895111-6.77205333h-31.77282372c-3.11902815 0-77.0048 0.03640889-143.03838814 3.19184592-26.08090075 1.37140148-30.1586963-4.70888297-45.15915852-42.16149333-3.64088889-9.11435852-7.42741333-18.47144297-11.86929778-27.67075556-0.08495408-0.16990815-0.15777185-0.3398163-0.23058962-0.52186073-13.50769778-36.39675259-28.02270815-201.87515259-34.36999112-302.72777482-0.04854518-0.71604148 0.02427259-1.43208297 0.23058963-2.12385185 5.42492445-18.3622163 46.10578963-114.88218075 299.23252149-129.30010074 279.97221925-15.85000297 351.97686518 93.00043852 364.50152295 117.41866666 0.41263408 0.81313185 0.6432237 1.69908148 0.6674963 2.6093037 5.98319408 179.65359408 12.82806518 469.99021037 6.49291853 508.08604445z" fill="#1890FF" p-id="1937"></path></svg>