<?xml version="1.0" standalone="no"?><!DOCTYPE svg PUBLIC "-//W3C//DTD SVG 1.1//EN" "http://www.w3.org/Graphics/SVG/1.1/DTD/svg11.dtd"><svg t="1632134156310" class="icon" viewBox="0 0 1024 1024" version="1.1" xmlns="http://www.w3.org/2000/svg" p-id="8169" xmlns:xlink="http://www.w3.org/1999/xlink" width="200" height="200"><defs><style type="text/css"></style></defs><path d="M525.9 393h-26.3c-12.9 0-23.3-10.4-23.3-23.3V151.1c0-12.9 10.4-23.3 23.3-23.3h26.3c12.9 0 23.3 10.4 23.3 23.3v218.5c0 12.9-10.5 23.4-23.3 23.4z" fill="#231815" p-id="8170"></path><path d="M525.9 901.5h-26.3c-12.9 0-23.3-10.4-23.3-23.3V659.7c0-12.9 10.4-23.3 23.3-23.3h26.3c12.9 0 23.3 10.4 23.3 23.3v218.5c0 12.9-10.5 23.3-23.3 23.3z" fill="#231815" opacity=".6" p-id="8171"></path><path d="M608.1 437.9l-18.6-18.6c-9.1-9.1-9.1-23.9 0-33L744 231.8c9.1-9.1 23.9-9.1 33 0l18.6 18.6c9.1 9.1 9.1 23.9 0 33L641 437.9c-9.1 9.1-23.8 9.1-32.9 0z" fill="#231815" opacity=".9" p-id="8172"></path><path d="M248.5 797.5l-18.6-18.6c-9.1-9.1-9.1-23.9 0-33l154.5-154.5c9.1-9.1 23.9-9.1 33 0L436 610c9.1 9.1 9.1 23.9 0 33L281.4 797.5c-9.1 9.1-23.8 9.1-32.9 0z" fill="#231815" opacity=".5" p-id="8173"></path><path d="M634.4 527.8v-26.3c0-12.9 10.4-23.3 23.3-23.3h218.5c12.9 0 23.3 10.4 23.3 23.3v26.3c0 12.9-10.4 23.3-23.3 23.3H657.7c-12.9 0-23.3-10.4-23.3-23.3z" fill="#231815" opacity=".8" p-id="8174"></path><path d="M125.9 527.8v-26.3c0-12.9 10.4-23.3 23.3-23.3h218.5c12.9 0 23.3 10.4 23.3 23.3v26.3c0 12.9-10.4 23.3-23.3 23.3H149.2c-12.9 0-23.3-10.4-23.3-23.3z" fill="#231815" opacity=".4" p-id="8175"></path><path d="M589.5 610l18.6-18.6c9.1-9.1 23.9-9.1 33 0L795.6 746c9.1 9.1 9.1 23.9 0 33L777 797.5c-9.1 9.1-23.9 9.1-33 0L589.5 643c-9.1-9.1-9.1-23.9 0-33z" fill="#231815" opacity=".7" p-id="8176"></path><path d="M229.9 250.4l18.6-18.6c9.1-9.1 23.9-9.1 33 0L436 386.4c9.1 9.1 9.1 23.9 0 33L417.4 438c-9.1 9.1-23.9 9.1-33 0L229.9 283.4c-9.1-9.1-9.1-23.9 0-33z" fill="#231815" opacity=".3" p-id="8177"></path></svg>